<svg viewBox="0 0 1391 400" xmlns="http://www.w3.org/2000/svg"><g><g><g><g><g><line x1="39.15625" y1="377.828125" x2="34.15625" y2="377.828125" style="visibility: inherit;" fill="rgb(0, 0, 0)" stroke="rgb(204, 204, 204)" stroke-width="1px"></line><line x1="39.15625" y1="350.84040178571433" x2="34.15625" y2="350.84040178571433" style="visibility: inherit;" fill="rgb(0, 0, 0)" stroke="rgb(204, 204, 204)" stroke-width="1px"></line><line x1="39.15625" y1="323.85267857142856" x2="34.15625" y2="323.85267857142856" style="visibility: inherit;" fill="rgb(0, 0, 0)" stroke="rgb(204, 204, 204)" stroke-width="1px"></line><line x1="39.15625" y1="296.86495535714283" x2="34.15625" y2="296.86495535714283" style="visibility: inherit;" fill="rgb(0, 0, 0)" stroke="rgb(204, 204, 204)" stroke-width="1px"></line><line x1="39.15625" y1="269.87723214285717" x2="34.15625" y2="269.87723214285717" style="visibility: inherit;" fill="rgb(0, 0, 0)" stroke="rgb(204, 204, 204)" stroke-width="1px"></line><line x1="39.15625" y1="242.88950892857144" x2="34.15625" y2="242.88950892857144" style="visibility: inherit;" fill="rgb(0, 0, 0)" stroke="rgb(204, 204, 204)" stroke-width="1px"></line><line x1="39.15625" y1="215.90178571428578" x2="34.15625" y2="215.90178571428578" style="visibility: inherit;" fill="rgb(0, 0, 0)" stroke="rgb(204, 204, 204)" stroke-width="1px"></line><line x1="39.15625" y1="188.91406250000003" x2="34.15625" y2="188.91406250000003" style="visibility: inherit;" fill="rgb(0, 0, 0)" stroke="rgb(204, 204, 204)" stroke-width="1px"></line><line x1="39.15625" y1="161.9263392857143" x2="34.15625" y2="161.9263392857143" style="visibility: inherit;" fill="rgb(0, 0, 0)" stroke="rgb(204, 204, 204)" stroke-width="1px"></line><line x1="39.15625" y1="134.93861607142856" x2="34.15625" y2="134.93861607142856" style="visibility: inherit;" fill="rgb(0, 0, 0)" stroke="rgb(204, 204, 204)" stroke-width="1px"></line><line x1="39.15625" y1="107.95089285714295" x2="34.15625" y2="107.95089285714295" style="visibility: inherit;" fill="rgb(0, 0, 0)" stroke="rgb(204, 204, 204)" stroke-width="1px"></line><line x1="39.15625" y1="80.96316964285717" x2="34.15625" y2="80.96316964285717" style="visibility: inherit;" fill="rgb(0, 0, 0)" stroke="rgb(204, 204, 204)" stroke-width="1px"></line><line x1="39.15625" y1="53.9754464285715" x2="34.15625" y2="53.9754464285715" style="visibility: inherit;" fill="rgb(0, 0, 0)" stroke="rgb(204, 204, 204)" stroke-width="1px"></line><line x1="39.15625" y1="26.987723214285722" x2="34.15625" y2="26.987723214285722" style="visibility: inherit;" fill="rgb(0, 0, 0)" stroke="rgb(204, 204, 204)" stroke-width="1px"></line><line x1="39.15625" y1="0" x2="34.15625" y2="0" style="visibility: inherit;" fill="rgb(0, 0, 0)" stroke="rgb(204, 204, 204)" stroke-width="1px"></line></g><g transform="translate(29.15625, 0)"><text x="0" y="377.828125" dx="0em" dy="0.3em" style="text-anchor: end; visibility: hidden; font-family: &quot;Helvetica Neue&quot;, sans-serif; font-size: 12px; font-weight: 200;" fill="rgb(50, 49, 63)" stroke="none" stroke-width="1px">1.3</text><text x="0" y="350.84040178571433" dx="0em" dy="0.3em" style="text-anchor: end; visibility: inherit; font-family: &quot;Helvetica Neue&quot;, sans-serif; font-size: 12px; font-weight: 200;" fill="rgb(50, 49, 63)" stroke="none" stroke-width="1px">1.4</text><text x="0" y="323.85267857142856" dx="0em" dy="0.3em" style="text-anchor: end; visibility: inherit; font-family: &quot;Helvetica Neue&quot;, sans-serif; font-size: 12px; font-weight: 200;" fill="rgb(50, 49, 63)" stroke="none" stroke-width="1px">1.5</text><text x="0" y="296.86495535714283" dx="0em" dy="0.3em" style="text-anchor: end; visibility: inherit; font-family: &quot;Helvetica Neue&quot;, sans-serif; font-size: 12px; font-weight: 200;" fill="rgb(50, 49, 63)" stroke="none" stroke-width="1px">1.6</text><text x="0" y="269.87723214285717" dx="0em" dy="0.3em" style="text-anchor: end; visibility: inherit; font-family: &quot;Helvetica Neue&quot;, sans-serif; font-size: 12px; font-weight: 200;" fill="rgb(50, 49, 63)" stroke="none" stroke-width="1px">1.7</text><text x="0" y="242.88950892857144" dx="0em" dy="0.3em" style="text-anchor: end; visibility: inherit; font-family: &quot;Helvetica Neue&quot;, sans-serif; font-size: 12px; font-weight: 200;" fill="rgb(50, 49, 63)" stroke="none" stroke-width="1px">1.8</text><text x="0" y="215.90178571428578" dx="0em" dy="0.3em" style="text-anchor: end; visibility: inherit; font-family: &quot;Helvetica Neue&quot;, sans-serif; font-size: 12px; font-weight: 200;" fill="rgb(50, 49, 63)" stroke="none" stroke-width="1px">1.9</text><text x="0" y="188.91406250000003" dx="0em" dy="0.3em" style="text-anchor: end; visibility: inherit; font-family: &quot;Helvetica Neue&quot;, sans-serif; font-size: 12px; font-weight: 200;" fill="rgb(50, 49, 63)" stroke="none" stroke-width="1px">2</text><text x="0" y="161.9263392857143" dx="0em" dy="0.3em" style="text-anchor: end; visibility: inherit; font-family: &quot;Helvetica Neue&quot;, sans-serif; font-size: 12px; font-weight: 200;" fill="rgb(50, 49, 63)" stroke="none" stroke-width="1px">2.1</text><text x="0" y="134.93861607142856" dx="0em" dy="0.3em" style="text-anchor: end; visibility: inherit; font-family: &quot;Helvetica Neue&quot;, sans-serif; font-size: 12px; font-weight: 200;" fill="rgb(50, 49, 63)" stroke="none" stroke-width="1px">2.2</text><text x="0" y="107.95089285714295" dx="0em" dy="0.3em" style="text-anchor: end; visibility: inherit; font-family: &quot;Helvetica Neue&quot;, sans-serif; font-size: 12px; font-weight: 200;" fill="rgb(50, 49, 63)" stroke="none" stroke-width="1px">2.3</text><text x="0" y="80.96316964285717" dx="0em" dy="0.3em" style="text-anchor: end; visibility: inherit; font-family: &quot;Helvetica Neue&quot;, sans-serif; font-size: 12px; font-weight: 200;" fill="rgb(50, 49, 63)" stroke="none" stroke-width="1px">2.4</text><text x="0" y="53.9754464285715" dx="0em" dy="0.3em" style="text-anchor: end; visibility: inherit; font-family: &quot;Helvetica Neue&quot;, sans-serif; font-size: 12px; font-weight: 200;" fill="rgb(50, 49, 63)" stroke="none" stroke-width="1px">2.5</text><text x="0" y="26.987723214285722" dx="0em" dy="0.3em" style="text-anchor: end; visibility: inherit; font-family: &quot;Helvetica Neue&quot;, sans-serif; font-size: 12px; font-weight: 200;" fill="rgb(50, 49, 63)" stroke="none" stroke-width="1px">2.6</text><text x="0" y="0" dx="0em" dy="0.3em" style="text-anchor: end; visibility: hidden; font-family: &quot;Helvetica Neue&quot;, sans-serif; font-size: 12px; font-weight: 200;" fill="rgb(50, 49, 63)" stroke="none" stroke-width="1px">2.7</text></g><line x1="39.15625" y1="0" x2="39.15625" y2="377.828125" fill="rgb(0, 0, 0)" stroke="rgb(204, 204, 204)" stroke-width="1px"></line></g></g><g transform="translate(39, 0)" clip-path="url(#clip_0)"><clipPath id="clip_0"><rect width="1351" height="377"></rect></clipPath><g><g><g><line x1="0" y1="0" x2="0" y2="377.828125" fill="rgb(0, 0, 0)" stroke="rgb(60, 60, 60)" stroke-width="1px" opacity="0.25"></line><line x1="112.65364583333333" y1="0" x2="112.65364583333333" y2="377.828125" fill="rgb(0, 0, 0)" stroke="rgb(60, 60, 60)" stroke-width="1px" opacity="0.25"></line><line x1="225.30729166666666" y1="0" x2="225.30729166666666" y2="377.828125" fill="rgb(0, 0, 0)" stroke="rgb(60, 60, 60)" stroke-width="1px" opacity="0.25"></line><line x1="337.9609375" y1="0" x2="337.9609375" y2="377.828125" fill="rgb(0, 0, 0)" stroke="rgb(60, 60, 60)" stroke-width="1px" opacity="0.25"></line><line x1="450.6145833333333" y1="0" x2="450.6145833333333" y2="377.828125" fill="rgb(0, 0, 0)" stroke="rgb(60, 60, 60)" stroke-width="1px" opacity="0.25"></line><line x1="563.2682291666667" y1="0" x2="563.2682291666667" y2="377.828125" fill="rgb(0, 0, 0)" stroke="rgb(60, 60, 60)" stroke-width="1px" opacity="0.25"></line><line x1="675.921875" y1="0" x2="675.921875" y2="377.828125" fill="rgb(0, 0, 0)" stroke="rgb(60, 60, 60)" stroke-width="1px" opacity="0.25"></line><line x1="788.5755208333334" y1="0" x2="788.5755208333334" y2="377.828125" fill="rgb(0, 0, 0)" stroke="rgb(60, 60, 60)" stroke-width="1px" opacity="0.25"></line><line x1="901.2291666666666" y1="0" x2="901.2291666666666" y2="377.828125" fill="rgb(0, 0, 0)" stroke="rgb(60, 60, 60)" stroke-width="1px" opacity="0.25"></line><line x1="1013.8828125" y1="0" x2="1013.8828125" y2="377.828125" fill="rgb(0, 0, 0)" stroke="rgb(60, 60, 60)" stroke-width="1px" opacity="0.25"></line><line x1="1126.5364583333335" y1="0" x2="1126.5364583333335" y2="377.828125" fill="rgb(0, 0, 0)" stroke="rgb(60, 60, 60)" stroke-width="1px" opacity="0.25"></line><line x1="1239.1901041666665" y1="0" x2="1239.1901041666665" y2="377.828125" fill="rgb(0, 0, 0)" stroke="rgb(60, 60, 60)" stroke-width="1px" opacity="0.25"></line><line x1="1351.84375" y1="0" x2="1351.84375" y2="377.828125" fill="rgb(0, 0, 0)" stroke="rgb(60, 60, 60)" stroke-width="1px" opacity="0.25"></line></g><g><line x1="0" y1="377.828125" x2="1351.84375" y2="377.828125" fill="rgb(0, 0, 0)" stroke="rgb(60, 60, 60)" stroke-width="1px" opacity="0.25"></line><line x1="0" y1="350.84040178571433" x2="1351.84375" y2="350.84040178571433" fill="rgb(0, 0, 0)" stroke="rgb(60, 60, 60)" stroke-width="1px" opacity="0.25"></line><line x1="0" y1="323.85267857142856" x2="1351.84375" y2="323.85267857142856" fill="rgb(0, 0, 0)" stroke="rgb(60, 60, 60)" stroke-width="1px" opacity="0.25"></line><line x1="0" y1="296.86495535714283" x2="1351.84375" y2="296.86495535714283" fill="rgb(0, 0, 0)" stroke="rgb(60, 60, 60)" stroke-width="1px" opacity="0.25"></line><line x1="0" y1="269.87723214285717" x2="1351.84375" y2="269.87723214285717" fill="rgb(0, 0, 0)" stroke="rgb(60, 60, 60)" stroke-width="1px" opacity="0.25"></line><line x1="0" y1="242.88950892857144" x2="1351.84375" y2="242.88950892857144" fill="rgb(0, 0, 0)" stroke="rgb(60, 60, 60)" stroke-width="1px" opacity="0.25"></line><line x1="0" y1="215.90178571428578" x2="1351.84375" y2="215.90178571428578" fill="rgb(0, 0, 0)" stroke="rgb(60, 60, 60)" stroke-width="1px" opacity="0.25"></line><line x1="0" y1="188.91406250000003" x2="1351.84375" y2="188.91406250000003" fill="rgb(0, 0, 0)" stroke="rgb(60, 60, 60)" stroke-width="1px" opacity="0.25"></line><line x1="0" y1="161.9263392857143" x2="1351.84375" y2="161.9263392857143" fill="rgb(0, 0, 0)" stroke="rgb(60, 60, 60)" stroke-width="1px" opacity="0.25"></line><line x1="0" y1="134.93861607142856" x2="1351.84375" y2="134.93861607142856" fill="rgb(0, 0, 0)" stroke="rgb(60, 60, 60)" stroke-width="1px" opacity="0.25"></line><line x1="0" y1="107.95089285714295" x2="1351.84375" y2="107.95089285714295" fill="rgb(0, 0, 0)" stroke="rgb(60, 60, 60)" stroke-width="1px" opacity="0.25"></line><line x1="0" y1="80.96316964285717" x2="1351.84375" y2="80.96316964285717" fill="rgb(0, 0, 0)" stroke="rgb(60, 60, 60)" stroke-width="1px" opacity="0.25"></line><line x1="0" y1="53.9754464285715" x2="1351.84375" y2="53.9754464285715" fill="rgb(0, 0, 0)" stroke="rgb(60, 60, 60)" stroke-width="1px" opacity="0.25"></line><line x1="0" y1="26.987723214285722" x2="1351.84375" y2="26.987723214285722" fill="rgb(0, 0, 0)" stroke="rgb(60, 60, 60)" stroke-width="1px" opacity="0.25"></line><line x1="0" y1="0" x2="1351.84375" y2="0" fill="rgb(0, 0, 0)" stroke="rgb(60, 60, 60)" stroke-width="1px" opacity="0.25"></line></g></g></g><g><g><line x1="0" y1="728.6685267857142" x2="1351.84375" y2="728.6685267857142" fill="rgb(0, 0, 0)" stroke="rgb(153, 153, 153)" stroke-width="1.5px"></line></g></g><g><g><line x1="112.65364583333333" y1="0" x2="112.65364583333333" y2="377.828125" fill="rgb(0, 0, 0)" stroke="rgb(153, 153, 153)" stroke-width="1.5px"></line></g></g><g><g><g><g><g><path stroke="rgb(0, 119, 187)" stroke-width="2px" d="M1239.1901041666665,256.9726949073374Z" style="fill: none;" fill="none"></path></g><g><path stroke="rgb(255, 112, 67)" stroke-width="2px" d="M144.1966666666667,-2.497493094975596L147.57627604166666,26.478429075437816L150.95588541666666,44.347353887704685L154.33549479166666,46.30380351202342L157.71510416666666,32.999317115512895L161.09471354166666,53.957437558915785L164.47432291666667,63.83729571842923L167.85393229166667,59.81631008838224L171.23354166666667,48.78569539148947L174.6131510416667,83.68953417699299L177.99276041666664,94.45305964089829L181.37236979166664,67.04951542704697L184.75197916666664,82.45237606294421L188.13158854166664,132.9271635950937L191.51119791666667,121.42120775434665L194.89080729166668,122.13686543146136L198.27041666666668,132.03860088708208L201.65002604166668,99.53129529559055L205.02963541666668,109.62960447356386L208.40924479166668,104.5559813637417L211.78885416666668,119.68189468108557L215.16846354166668,114.03471436854187L218.54807291666665,96.77446009646911L221.92768229166666,83.45713185747138L225.30729166666666,72.70633705417089L228.68690104166666,68.19561845119694L232.06651041666666,89.5200840249243L235.44611979166666,153.0959032964187L238.82572916666666,99.03683167028686L242.20533854166666,113.52509535802778L245.58494791666666,119.2966158302633L248.96455729166667,132.52958549244508L252.34416666666667,140.16090336343734L255.72377604166667,125.54721571833082L259.1033854166667,153.40852090682725L262.48299479166667,141.1852242455064L265.86260416666664,160.819100116662L269.2422135416667,116.5043932574415L272.62182291666664,97.58673351740907L276.0014322916667,91.70162416510027L279.38104166666665,107.5845338257181L282.7606510416667,98.547814437824L286.14026041666665,95.9104771915039L289.5198697916667,123.96719793976607L292.89947916666665,141.3174473958614L296.2790885416667,132.60726091794606L299.6586979166667,121.56311028554802L303.0383072916666,123.52231481414523L306.41791666666666,117.42115179635755L309.79752604166663,148.1871636003823L313.17713541666666,138.78093549510373L316.5567447916667,135.46914468241897L319.93635416666666,111.79403250662926L323.3159635416667,121.08032645837682L326.69557291666666,140.14135742433893L330.0751822916667,149.92943775077907L333.45479166666667,166.01914629633237L336.8344010416667,156.5092418496653L340.21401041666667,157.84654580532572L343.59361979166664,135.55909763540842L346.97322916666667,137.7958038663115L350.35283854166664,138.77320446377757L353.7324479166667,136.3215647632653L357.11205729166664,147.35679178313205L360.4916666666667,152.4437929226932L363.87127604166665,139.71314183378084L367.2508854166667,137.16907720610678L370.63049479166665,149.93166005242404L374.0101041666667,155.8897112600716L377.38971354166665,162.56475236500148L380.7693229166667,136.3747239646264L384.1489322916667,132.90267086760178L387.5285416666667,144.24290855816582L390.9081510416667,137.24917823322426L394.2877604166667,120.79687194588752L397.6673697916667,129.37242841460093L401.0469791666667,144.269932110322L404.4265885416667,124.85345798130453L407.8061979166667,144.89065509206L411.1858072916666,136.63228782514304L414.56541666666664,162.75026520799045L417.94502604166667,150.70015717274222L421.32463541666664,124.97955278803957L424.70424479166667,134.1792116099174L428.08385416666664,140.87600844638715L431.46346354166667,109.4095142707315L434.84307291666664,115.58182961834848L438.2226822916667,134.1759316894869L441.60229166666664,143.0477009289113L444.9819010416667,148.11861219988157L448.36151041666665,166.849206659433L451.7411197916667,177.89668117762952L455.12072916666665,140.5190365492101L458.5003385416667,159.87699545452918L461.87994791666665,137.28532269508457L465.2595572916667,161.6689875352601L468.6391666666667,148.8599760266078L472.0187760416667,184.74796102993L475.3983854166667,192.33784828866476L478.7779947916667,207.53053006880594L482.1576041666667,164.02910500975318L485.5372135416667,140.79460944340326L488.9168229166667,151.7938569882L492.2964322916667,135.58413944277922L495.6760416666666,125.68082312595533L499.05565104166664,123.78847429791676L502.43526041666667,134.39294182379504L505.81486979166664,129.45415806586087L509.19447916666667,153.11874932153032L512.5740885416667,164.80511242255227L515.9536979166667,177.02915978941112L519.3333072916666,176.85078666345518L522.7129166666666,190.48516765547973L526.0925260416667,181.4556200244106L529.4721354166667,201.51061541782144L532.8517447916666,190.18483812010655L536.2313541666666,180.43658575247406L539.6109635416667,155.64743493226143L542.9905729166667,175.67267977709332L546.3701822916667,208.56513316980718L549.7497916666666,198.1208659537026L553.1294010416667,215.63121155823322L556.5090104166667,209.5077391043096L559.8886197916667,233.89694890804398L563.2682291666667,192.64270648657524L566.6478385416667,227.24237679634325L570.0274479166667,226.21712379347585L573.4070572916667,203.4966136343472L576.7866666666667,187.85765773177442L580.1662760416666,167.23731808797982L583.5458854166666,165.6761248039818L586.9254947916667,158.0694588879885L590.3051041666666,179.7911665439265L593.6847135416666,169.06474809601983L597.0643229166667,196.4074077425562L600.4439322916667,189.42950812941908L603.8235416666666,207.9746289071337L607.2031510416666,199.17471341336002L610.5827604166667,196.48050764016563L613.9623697916667,182.22854535616793L617.3419791666666,158.69770632842744L620.7215885416666,171.35695961340576L624.1011979166667,178.04346313780553L627.4808072916667,201.74094834578216L630.8604166666667,182.1145517466879L634.2400260416666,177.43757914512435L637.6196354166667,196.82863681119554L640.9992447916667,202.7471402904503L644.3788541666667,234.94055215757058L647.7584635416667,232.67610572709506L651.1380729166667,208.43228478221985L654.5176822916667,197.95805053853334L657.8972916666667,213.95357448946436L661.2769010416667,223.9565118361899L664.6565104166666,209.1304995742502L668.0361197916666,167.88054024312694L671.4157291666667,182.69888006954247L674.7953385416666,200.12037193916694L678.1749479166667,223.58475647142717L681.5545572916667,219.60886658911053L684.9341666666667,211.22825853072234L688.3137760416666,209.30934383798788L691.6933854166667,183.84711320702866L695.0729947916667,213.84363039330282L698.4526041666668,234.08787096682997L701.8322135416666,240.03220579411868L705.2118229166666,268.8499308005648L708.5914322916667,242.83910343619107L711.9710416666666,212.2406042297001L715.3506510416667,204.45305352215428L718.7302604166666,198.30710278420037L722.1098697916667,228.36009311518816L725.4894791666666,228.37743999725348L728.8690885416667,195.2209504565259L732.2486979166666,190.58228978573962L735.6283072916667,170.84340954203077L739.0079166666666,195.12356133580272L742.3875260416667,218.25518733389927L745.7671354166666,213.76733065568487L749.1467447916667,244.61043562204634L752.5263541666666,241.46884894879966L755.9059635416667,225.0583219733291L759.2855729166666,238.56945484063598L762.6651822916667,244.93580351952656L766.0447916666667,235.07395746200223L769.4244010416667,218.11808820109073L772.8040104166666,228.0788572865158L776.1836197916667,214.2806967684159L779.5632291666667,230.86215212808938L782.9428385416668,227.43535032980637L786.3224479166666,201.43155640792932L789.7020572916666,213.0243316881568L793.0816666666667,194.42120668929795L796.4612760416666,196.10270376034623L799.8408854166667,186.77755882267127L803.2204947916666,217.3859053391157L806.6001041666667,197.34728397420963L809.9797135416666,198.7477222602865L813.3593229166667,200.50014791583675L816.7389322916666,193.45858846593725L820.1185416666667,214.17803739909345L823.4981510416666,197.20696971785014L826.8777604166667,209.59726060153915L830.2573697916666,223.8135877020045L833.6369791666667,267.57857274822413L837.0165885416666,266.2886086696464L840.3961979166667,239.10126502446658L843.7758072916666,236.07721938782618L847.1554166666667,237.45244019342812L850.5350260416667,203.45890669762534L853.9146354166667,226.44886099466348L857.2942447916666,245.55991764797116L860.6738541666667,278.01604788167856L864.0534635416667,244.15610846186968L867.4330729166668,240.22287332863644L870.8126822916666,225.4744447266053L874.1922916666666,247.63851988690183L877.5719010416667,240.42919750055214L880.9515104166666,262.66055877083863L884.3311197916667,271.3665099864732L887.7107291666666,240.5037785924223L891.0903385416667,213.14546345044235L894.4699479166666,226.76098760075521L897.8495572916667,233.61022579350652L901.2291666666666,267.0035985072809L904.6087760416667,254.8902178620441L907.9883854166666,245.7950715885078L911.3679947916667,233.90304297748298L914.7476041666666,238.85457976943812L918.1272135416667,218.1106490192719L921.5068229166666,259.46379545808145L924.8864322916667,271.2422526934208L928.2660416666666,244.85855762508703L931.6456510416667,240.20622625855918L935.0252604166667,221.48518184336865L938.4048697916667,237.76294265907995L941.7844791666666,256.451580211779L945.1640885416667,263.76257191017896L948.5436979166667,265.9046897673474L951.9233072916668,263.4877757491773L955.3029166666666,272.85198371535745L958.6825260416666,268.9364639802562L962.0621354166667,282.856983120731L965.4417447916666,285.5532862810953L968.8213541666667,293.3660068508186L972.2009635416666,249.263835434389L975.5805729166667,252.10046653182616L978.9601822916666,237.6135329039984L982.3397916666667,245.88072416207328L985.7194010416666,273.812412623442L989.0990104166667,295.94419285332623L992.4786197916666,297.82853689202517L995.8582291666667,289.2209103561827L999.2378385416666,308.84893214044166L1002.6174479166667,253.6793974070552L1005.9970572916666,238.03746792239056L1009.3766666666667,212.9782122588028L1012.7562760416666,239.53503551056207L1016.1358854166667,236.08213995698648L1019.5154947916667,218.3510908449334L1022.8951041666667,251.4153772473548L1026.2747135416666,289.2674183803924L1029.6543229166668,254.45628622754893L1033.0339322916666,247.96087077150716L1036.4135416666668,244.99239773706017L1039.7931510416668,239.05071859835553L1043.1727604166665,245.6448551244632L1046.5523697916667,269.06821574006483L1049.9319791666667,276.9305492294797L1053.3115885416667,281.9136117825192L1056.6911979166666,254.6186109875353L1060.0708072916666,268.81289432677187L1063.4504166666666,279.1582551541097L1066.8300260416668,285.147462169572L1070.2096354166665,281.996539243882L1073.5892447916667,279.4181894476308L1076.9688541666667,273.25956032834443L1080.3484635416667,269.626564653119L1083.7280729166666,260.22729597217733L1087.1076822916666,263.0342284110728L1090.4872916666666,277.21636271506804L1093.8669010416668,261.0904175262041L1097.2465104166668,268.0332314676916L1100.6261197916667,292.4525552550437L1104.0057291666667,270.5692942803789L1107.3853385416667,283.04013146010743L1110.7649479166666,267.24138057962824L1114.1445572916668,253.86295050544436L1117.5241666666666,270.06375797488033L1120.9037760416668,275.27660270889675L1124.2833854166668,292.38213907801304L1127.6629947916665,295.241387415773L1131.0426041666667,273.143689136371L1134.4222135416667,287.4048389517541L1137.8018229166667,267.8486136678111L1141.1814322916666,285.7399875255164L1144.5610416666666,286.0494648839504L1147.9406510416666,297.8291994552808L1151.3202604166668,327.9439019876674L1154.6998697916665,306.6585826756757L1158.0794791666667,292.41853918103584L1161.4590885416667,287.0694245902789L1164.8386979166667,314.2020600967676L1168.2183072916666,324.4651922791685L1171.5979166666666,315.6948077157472L1174.9775260416666,307.2363013842475L1178.3571354166668,306.77530049548744L1181.7367447916668,294.7436380154221L1185.1163541666667,323.4202535245189L1188.4959635416667,311.6018656228575L1191.8755729166667,299.0974905624317L1195.2551822916666,310.20839172625364L1198.6347916666668,321.74083815114136L1202.0144010416666,323.42547897615606L1205.3940104166668,316.33478099093264L1208.7736197916668,328.8484582833077L1212.1532291666665,336.49948203784123L1215.5328385416667,337.25608409083594L1218.9124479166667,298.9598992369702L1222.2920572916667,307.4227561523013L1225.6716666666666,290.02335951593477L1229.0512760416666,303.7096665540497L1232.4308854166666,311.2715274651061L1235.8104947916668,309.3890041076879L1239.1901041666665,312.70179520097105" style="fill: none;" fill="none"></path></g></g></g></g><g opacity="0.20000000298023224"><g><g><g><path stroke="rgb(0, 119, 187)" stroke-width="2px" d="M1239.1901041666665,256.9726949073374Z" style="fill: none;" fill="none"></path></g><g><path stroke="rgb(255, 112, 67)" stroke-width="2px" d="M127.29861979166667,-34.789389574634185L130.67822916666665,34.58616628657495L134.05783854166665,-13.76243240386242L137.43744791666666,-41.51556308567518L140.81705729166669,0.7582781804459842L144.1966666666667,61.78722762582561L147.57627604166666,69.67950284960017L150.95588541666666,71.05349920636849L154.33549479166666,49.23208980102629L157.71510416666666,13.068652394626895L161.09471354166666,85.36998274017662L164.47432291666667,78.65011491626507L167.85393229166667,53.78653318967139L171.23354166666667,32.24257401802714L174.6131510416667,136.03997510671618L177.99276041666664,110.5973640078945L181.37236979166664,25.94570198176166L184.75197916666664,105.55616017909989L188.13158854166664,208.63834835668763L191.51119791666667,104.16241029224227L194.89080729166668,123.21034686054506L198.27041666666668,146.89116184413436L201.65002604166668,50.77042008563882L205.02963541666668,124.7770527372403L208.40924479166668,96.94555137253235L211.78885416666668,142.37075629723927L215.16846354166668,105.56394577239246L218.54807291666665,70.88408212257286L221.92768229166666,63.48114108879656L225.30729166666666,56.580145619277516L228.68690104166666,61.42954074059219L232.06651041666666,121.50678183564122L235.44611979166666,248.45963122003846L238.82572916666666,17.948224732918447L242.20533854166666,135.25749080894252L245.58494791666666,127.95389651932888L248.96455729166667,152.3790399591838L252.34416666666667,151.6078801607447L255.72377604166667,103.62668426121985L259.1033854166667,195.20047867750486L262.48299479166667,122.8502792567015L265.86260416666664,190.26991392033443L269.2422135416667,50.03233297275648L272.62182291666664,69.21024390842234L276.0014322916667,82.87396013683514L279.38104166666665,131.40889831632379L282.7606510416667,84.99273535609251L286.14026041666665,91.95447132204265L289.5198697916667,166.05227906203697L292.89947916666665,167.34282157995872L296.2790885416667,119.54198120108674L299.6586979166667,104.99688433696122L303.0383072916666,126.46112160703967L306.41791666666666,108.26940726967797L309.79752604166663,194.33618130641327L313.17713541666666,124.67159333718678L316.5567447916667,130.50145846339214L319.93635416666666,76.28136424294547L323.3159635416667,135.00976738599797L326.69557291666666,168.73290387328186L330.0751822916667,164.61155824043922L333.45479166666667,190.15370911466226L336.8344010416667,142.24438517966442L340.21401041666667,159.85250173881653L343.59361979166664,102.12792538053225L346.97322916666667,141.1508632126664L350.35283854166664,140.23930535997667L353.7324479166667,132.6441052124969L357.11205729166664,163.90963231293222L360.4916666666667,160.07429463203468L363.87127604166665,120.61716520041233L367.2508854166667,133.35298026459563L370.63049479166665,169.07553432189994L374.0101041666667,164.826788071543L377.38971354166665,172.5773140223963L380.7693229166667,97.08968136406372L384.1489322916667,127.69459122206487L387.5285416666667,161.25326509401205L390.9081510416667,126.75858274581182L394.2877604166667,96.11841251488244L397.6673697916667,142.23576311767104L401.0469791666667,166.61618765390347L404.4265885416667,95.728746787778L407.8061979166667,174.94645075819324L411.1858072916666,124.24473692476752L414.56541666666664,201.92723128226189L417.94502604166667,132.62499511986974L421.32463541666664,86.39864621098553L424.70424479166667,147.97869984273404L428.08385416666664,150.9212037010917L431.46346354166667,62.2097730072482L434.84307291666664,124.84030263977397L438.2226822916667,162.06708479619454L441.60229166666664,156.35535478804798L444.9819010416667,155.72497910633686L448.36151041666665,194.9450983487602L451.7411197916667,194.4678929549243L455.12072916666665,84.45256960658094L458.5003385416667,188.9139338125076L461.87994791666665,103.3978135559176L465.2595572916667,198.24448479552356L468.6391666666667,129.64645876362923L472.0187760416667,238.57993853491334L475.3983854166667,203.722679176767L478.7779947916667,230.3195527390178L482.1576041666667,98.7769674211741L485.5372135416667,105.94286609387825L488.9168229166667,168.29272830539517L492.2964322916667,111.26956312464819L495.6760416666666,110.82584865071948L499.05565104166664,120.94995105585883L502.43526041666667,150.29964311261267L505.81486979166664,122.04598242895949L509.19447916666667,188.61563620503463L512.5740885416667,182.33465707408536L515.9536979166667,195.36523083969954L519.3333072916666,176.58322697452138L522.7129166666666,210.93673914351635L526.0925260416667,167.91129857780683L529.4721354166667,231.59310850793764L532.8517447916666,173.19617217353414L536.2313541666666,165.81420720102537L539.6109635416667,118.46370870194266L542.9905729166667,205.71054704434107L546.3701822916667,257.90381325887785L549.7497916666666,182.4544651295458L553.1294010416667,241.89672996502904L556.5090104166667,200.3225304234241L559.8886197916667,270.48076361364554L563.2682291666667,130.76134285437215L566.6478385416667,279.1418822609953L570.0274479166667,224.6792442891747L573.4070572916667,169.41584839565417L576.7866666666667,164.39922387791535L580.1662760416666,136.3068086222879L583.5458854166666,163.3343348779849L586.9254947916667,146.65946001399845L590.3051041666666,212.37372802783338L593.6847135416666,152.97512042415997L597.0643229166667,237.4213972123606L600.4439322916667,178.96265870971342L603.8235416666666,235.7923100737057L607.2031510416666,185.97484017269957L610.5827604166667,192.43919898037402L613.9623697916667,160.85060193017128L617.3419791666666,123.40144778681656L620.7215885416666,190.3458395408733L624.1011979166667,188.07321842440538L627.4808072916667,237.287176157747L630.8604166666667,152.67495684804666L634.2400260416666,170.42212024277876L637.6196354166667,225.91522331030242L640.9992447916667,211.62489550933245L644.3788541666667,283.2306699582509L647.7584635416667,229.27943608138182L651.1380729166667,172.066553364907L654.5176822916667,182.24669917300346L657.8972916666667,237.94686041586104L661.2769010416667,238.9609178562782L664.6565104166666,186.8914811813406L668.0361197916666,106.00560124644215L671.4157291666667,204.9263898091657L674.7953385416666,226.25260974360367L678.1749479166667,258.78133326981754L681.5545572916667,213.64503176563554L684.9341666666667,198.6573464431401L688.3137760416666,206.43097179888616L691.6933854166667,145.6537672605898L695.0729947916667,258.8384061727141L698.4526041666668,264.45423182712074L701.8322135416666,248.94870803505185L705.2118229166666,312.07651831023395L708.5914322916667,203.82286238963053L711.9710416666666,166.34285541996363L715.3506510416667,192.7717274608357L718.7302604166666,189.08817667726962L722.1098697916667,273.4395786116698L725.4894791666666,228.4034603203514L728.8690885416667,145.48621614543458L732.2486979166666,183.62429877956L735.6283072916667,141.23508917646754L739.0079166666666,231.5437890264605L742.3875260416667,252.95262633104414L745.7671354166666,207.0355456383633L749.1467447916667,290.8750930715885L752.5263541666666,236.75646893892971L755.9059635416667,200.44253151012322L759.2855729166666,258.8361541415964L762.6651822916667,254.48532653786242L766.0447916666667,220.28118837571571L769.4244010416667,192.68428430972358L772.8040104166666,243.02001091465357L776.1836197916667,193.58345599126605L779.5632291666667,255.73433516759962L782.9428385416668,222.29514763238177L786.3224479166666,162.42586552511372L789.7020572916666,230.41349460849807L793.0816666666667,166.51651919100968L796.4612760416666,198.62494936691866L799.8408854166667,172.78984141615888L803.2204947916666,263.2984251137823L806.6001041666667,167.28935192685046L809.9797135416666,200.84837968940184L813.3593229166667,203.12878639916227L816.7389322916666,182.8962492910879L820.1185416666667,245.25721079882769L823.4981510416666,171.75036819598506L826.8777604166667,228.18269692707278L830.2573697916666,245.13807835270254L833.6369791666667,333.2260503175536L837.0165885416666,264.35366255177985L840.3961979166667,198.32024955669687L843.7758072916666,231.54115093286552L847.1554166666667,239.5152714018311L850.5350260416667,152.46860645392113L853.9146354166667,260.9337924402207L857.2942447916666,274.22650262793263L860.6738541666667,326.7002432322396L864.0534635416667,193.36619933215638L867.4330729166668,234.32302062878654L870.8126822916666,203.3518018235586L874.1922916666666,280.8846326273467L877.5719010416667,229.61521392102756L880.9515104166666,296.00760067626834L884.3311197916667,284.42543680992515L887.7107291666666,194.209681501346L891.0903385416667,172.10799073747228L894.4699479166666,247.18427382622448L897.8495572916667,243.8840830826334L901.2291666666666,317.0936575779425L904.6087760416667,236.7201468941889L907.9883854166666,232.15235217820324L911.3679947916667,216.06500006094578L914.7476041666666,246.28188495737103L918.1272135416667,186.99475289402267L921.5068229166666,321.49351511629567L924.8864322916667,288.9099385464298L928.2660416666666,205.2830150225865L931.6456510416667,233.22772920876744L935.0252604166667,193.40361522058294L938.4048697916667,262.17958388264697L941.7844791666666,284.4845365408276L945.1640885416667,274.72905945777893L948.5436979166667,269.11786655310016L951.9233072916668,259.86240472192213L955.3029166666666,286.89829566462765L958.6825260416666,263.06318437760433L962.0621354166667,303.73776183144327L965.4417447916666,289.5977410216417L968.8213541666667,305.08508770540357L972.2009635416666,183.11057830974462L975.5805729166667,256.355413177982L978.9601822916666,215.88313246225675L982.3397916666667,258.2815110491855L985.7194010416666,315.70994531549513L989.0990104166667,329.14186319815263L992.4786197916666,300.6550529500736L995.8582291666667,276.30947055241893L999.2378385416666,338.29096481683L1002.6174479166667,170.92509530697552L1005.9970572916666,214.57457369539358L1009.3766666666667,175.3893287634211L1012.7562760416666,279.3702703882009L1016.1358854166667,230.9027966266232L1019.5154947916667,191.7545171768538L1022.8951041666667,301.01180685098683L1026.2747135416666,346.0454800799489L1029.6543229166668,202.23958799828378L1033.0339322916666,238.21774758744456L1036.4135416666668,240.53968818538956L1039.7931510416668,230.13819989029852L1043.1727604166665,255.53605991362463L1046.5523697916667,304.20325666346724L1049.9319791666667,288.72404946360206L1053.3115885416667,289.3882056120783L1056.6911979166666,213.6761097950595L1060.0708072916666,290.1043193356267L1063.4504166666666,294.67629639511665L1066.8300260416668,294.13127269276555L1070.2096354166665,277.27015485534713L1073.5892447916667,275.550664753254L1076.9688541666667,264.02161664941485L1080.3484635416667,264.1770711402808L1083.7280729166666,246.12839295076475L1087.1076822916666,267.24462706941586L1090.4872916666666,298.4895641710609L1093.8669010416668,236.90149974290816L1097.2465104166668,278.4474523799228L1100.6261197916667,329.081540936072L1104.0057291666667,237.74440281838181L1107.3853385416667,301.7463872297002L1110.7649479166666,243.5432542589094L1114.1445572916668,233.79530539416842L1117.5241666666666,294.36496917903423L1120.9037760416668,283.09586980992134L1124.2833854166668,318.04044363168737L1127.6629947916665,299.53025992241294L1131.0426041666667,239.9971417172679L1134.4222135416667,308.79656367482886L1137.8018229166667,238.51427574189648L1141.1814322916666,312.5770483120744L1144.5610416666666,286.5136809216014L1147.9406510416666,315.4988013122763L1151.3202604166668,373.11595578624735L1154.6998697916665,274.73060370768826L1158.0794791666667,271.05847393907607L1161.4590885416667,279.0457527041435L1164.8386979166667,354.90101335650047L1168.2183072916666,339.8598905527698L1171.5979166666666,302.5392308706152L1174.9775260416666,294.5485418869981L1178.3571354166668,306.0837991623474L1181.7367447916668,276.6961442953242L1185.1163541666667,366.43517678816403L1188.4959635416667,293.8742837703654L1191.8755729166667,280.34092797179306L1195.2551822916666,326.8747434719865L1198.6347916666668,339.039507788473L1202.0144010416666,325.95244021367813L1205.3940104166668,305.69873401309763L1208.7736197916668,347.6189742218703L1212.1532291666665,347.9760176696416L1215.5328385416667,338.390987170328L1218.9124479166667,241.51562195617177L1222.2920572916667,320.11704152529796L1225.6716666666666,263.9242645613849L1229.0512760416666,324.23912711122205L1232.4308854166666,322.61431883169075L1235.8104947916668,306.5652190715607L1239.1901041666665,317.67098184089576" style="fill: none;" fill="none"></path></g></g></g></g></g></g><g transform="translate(39, 377)" clip-path="url(#clip_1)"><clipPath id="clip_1"><rect width="1351" height="22"></rect></clipPath><g><g><line x1="0" y1="0" x2="0" y2="5" style="visibility: inherit;" fill="rgb(0, 0, 0)" stroke="rgb(204, 204, 204)" stroke-width="1px"></line><line x1="112.65364583333333" y1="0" x2="112.65364583333333" y2="5" style="visibility: inherit;" fill="rgb(0, 0, 0)" stroke="rgb(204, 204, 204)" stroke-width="1px"></line><line x1="225.30729166666666" y1="0" x2="225.30729166666666" y2="5" style="visibility: inherit;" fill="rgb(0, 0, 0)" stroke="rgb(204, 204, 204)" stroke-width="1px"></line><line x1="337.9609375" y1="0" x2="337.9609375" y2="5" style="visibility: inherit;" fill="rgb(0, 0, 0)" stroke="rgb(204, 204, 204)" stroke-width="1px"></line><line x1="450.6145833333333" y1="0" x2="450.6145833333333" y2="5" style="visibility: inherit;" fill="rgb(0, 0, 0)" stroke="rgb(204, 204, 204)" stroke-width="1px"></line><line x1="563.2682291666667" y1="0" x2="563.2682291666667" y2="5" style="visibility: inherit;" fill="rgb(0, 0, 0)" stroke="rgb(204, 204, 204)" stroke-width="1px"></line><line x1="675.921875" y1="0" x2="675.921875" y2="5" style="visibility: inherit;" fill="rgb(0, 0, 0)" stroke="rgb(204, 204, 204)" stroke-width="1px"></line><line x1="788.5755208333334" y1="0" x2="788.5755208333334" y2="5" style="visibility: inherit;" fill="rgb(0, 0, 0)" stroke="rgb(204, 204, 204)" stroke-width="1px"></line><line x1="901.2291666666666" y1="0" x2="901.2291666666666" y2="5" style="visibility: inherit;" fill="rgb(0, 0, 0)" stroke="rgb(204, 204, 204)" stroke-width="1px"></line><line x1="1013.8828125" y1="0" x2="1013.8828125" y2="5" style="visibility: inherit;" fill="rgb(0, 0, 0)" stroke="rgb(204, 204, 204)" stroke-width="1px"></line><line x1="1126.5364583333335" y1="0" x2="1126.5364583333335" y2="5" style="visibility: inherit;" fill="rgb(0, 0, 0)" stroke="rgb(204, 204, 204)" stroke-width="1px"></line><line x1="1239.1901041666665" y1="0" x2="1239.1901041666665" y2="5" style="visibility: inherit;" fill="rgb(0, 0, 0)" stroke="rgb(204, 204, 204)" stroke-width="1px"></line><line x1="1351.84375" y1="0" x2="1351.84375" y2="5" style="visibility: inherit;" fill="rgb(0, 0, 0)" stroke="rgb(204, 204, 204)" stroke-width="1px"></line></g><g transform="translate(0, 8)"><text x="0" y="0" dx="0em" dy="0.95em" style="text-anchor: middle; visibility: hidden; font-family: &quot;Helvetica Neue&quot;, sans-serif; font-size: 12px; font-weight: 200;" fill="rgb(50, 49, 63)" stroke="none" stroke-width="1px">-100k</text><text x="112.65364583333333" y="0" dx="0em" dy="0.95em" style="text-anchor: middle; visibility: inherit; font-family: &quot;Helvetica Neue&quot;, sans-serif; font-size: 12px; font-weight: 200;" fill="rgb(50, 49, 63)" stroke="none" stroke-width="1px">0</text><text x="225.30729166666666" y="0" dx="0em" dy="0.95em" style="text-anchor: middle; visibility: inherit; font-family: &quot;Helvetica Neue&quot;, sans-serif; font-size: 12px; font-weight: 200;" fill="rgb(50, 49, 63)" stroke="none" stroke-width="1px">100k</text><text x="337.9609375" y="0" dx="0em" dy="0.95em" style="text-anchor: middle; visibility: inherit; font-family: &quot;Helvetica Neue&quot;, sans-serif; font-size: 12px; font-weight: 200;" fill="rgb(50, 49, 63)" stroke="none" stroke-width="1px">200k</text><text x="450.6145833333333" y="0" dx="0em" dy="0.95em" style="text-anchor: middle; visibility: inherit; font-family: &quot;Helvetica Neue&quot;, sans-serif; font-size: 12px; font-weight: 200;" fill="rgb(50, 49, 63)" stroke="none" stroke-width="1px">300k</text><text x="563.2682291666667" y="0" dx="0em" dy="0.95em" style="text-anchor: middle; visibility: inherit; font-family: &quot;Helvetica Neue&quot;, sans-serif; font-size: 12px; font-weight: 200;" fill="rgb(50, 49, 63)" stroke="none" stroke-width="1px">400k</text><text x="675.921875" y="0" dx="0em" dy="0.95em" style="text-anchor: middle; visibility: inherit; font-family: &quot;Helvetica Neue&quot;, sans-serif; font-size: 12px; font-weight: 200;" fill="rgb(50, 49, 63)" stroke="none" stroke-width="1px">500k</text><text x="788.5755208333334" y="0" dx="0em" dy="0.95em" style="text-anchor: middle; visibility: inherit; font-family: &quot;Helvetica Neue&quot;, sans-serif; font-size: 12px; font-weight: 200;" fill="rgb(50, 49, 63)" stroke="none" stroke-width="1px">600k</text><text x="901.2291666666666" y="0" dx="0em" dy="0.95em" style="text-anchor: middle; visibility: inherit; font-family: &quot;Helvetica Neue&quot;, sans-serif; font-size: 12px; font-weight: 200;" fill="rgb(50, 49, 63)" stroke="none" stroke-width="1px">700k</text><text x="1013.8828125" y="0" dx="0em" dy="0.95em" style="text-anchor: middle; visibility: inherit; font-family: &quot;Helvetica Neue&quot;, sans-serif; font-size: 12px; font-weight: 200;" fill="rgb(50, 49, 63)" stroke="none" stroke-width="1px">800k</text><text x="1126.5364583333335" y="0" dx="0em" dy="0.95em" style="text-anchor: middle; visibility: inherit; font-family: &quot;Helvetica Neue&quot;, sans-serif; font-size: 12px; font-weight: 200;" fill="rgb(50, 49, 63)" stroke="none" stroke-width="1px">900k</text><text x="1239.1901041666665" y="0" dx="0em" dy="0.95em" style="text-anchor: middle; visibility: inherit; font-family: &quot;Helvetica Neue&quot;, sans-serif; font-size: 12px; font-weight: 200;" fill="rgb(50, 49, 63)" stroke="none" stroke-width="1px">1M</text><text x="1351.84375" y="0" dx="0em" dy="0.95em" style="text-anchor: middle; visibility: hidden; font-family: &quot;Helvetica Neue&quot;, sans-serif; font-size: 12px; font-weight: 200;" fill="rgb(50, 49, 63)" stroke="none" stroke-width="1px">1.1M</text></g><line x1="0" y1="0" x2="1351.84375" y2="0" fill="rgb(0, 0, 0)" stroke="rgb(204, 204, 204)" stroke-width="1px"></line></g></g></g></g></svg>